{"title":"The Iceman 2012 720p BRRip AAC x264-SSDD","uid":8799123,"size":891322117,"categoryP":"video","categoryS":"hd___movies","magnet":"?xt=urn:btih:4fe4cbf5bc4699f45901e7451aa7720a6ac11955&amp;dn=The+Iceman+2012+720p+BRRip+AAC+x264-SSDD&amp;tr=udp%3A%2F%2Ftracker.openbittorrent.com%3A80&amp;tr=udp%3A%2F%2Fopen.demonii.com%3A1337&amp;tr=udp%3A%2F%2Ftracker.coppersurfer.tk%3A6969&amp;tr=udp%3A%2F%2Fexodus.desync.com%3A6969","seeders":0,"leechers":1,"uploader":"TeX","files":1,"time":1376152091,"description":"[img]http://static4.thcdn.com/productimg/0/600/600/26/10811226-1372334289-653279.jpg[/img]\n\nIMDB Link - http://www.imdb.com/title/tt1491044\n\nSource - The.Iceman.2012.LIMITED.720p.BluRay.x264-ALLiANCE (Thumbs Up + Respect)\n\nNOTES - Enjoy.\n\nGeneral\nComplete name : The Iceman 2012 720p BRRip AAC x264-SSDD.mp4\nFormat : MPEG-4\nFormat profile : Base Media\nCodec ID : isom\nFile size : 850 MiB\nDuration : 1h 45mn\nOverall bit rate mode : Variable\nOverall bit rate : 1 127 Kbps\n\nVideo\nID : 1\nFormat : AVC\nFormat/Info : Advanced Video Codec\nFormat profile : &lt;a class=&quot;__cf_email__&quot; href=&quot;/cdn-cgi/l/email-protection&quot; data-cfemail=&quot;0e436f67604e423d203f&quot;&gt;[email&amp;#160;protected]&lt;/a&gt;&lt;script cf-hash='f9e31' type=&quot;text/javascript&quot;&gt;\n/* &lt;![CDATA[ */!function(){try{var t=&quot;currentScript&quot;in document?document.currentScript:function(){for(var t=document.getElementsByTagName(&quot;script&quot;),e=t.length;e--;)if(t[e].getAttribute(&quot;cf-hash&quot;))return t[e]}();if(t&amp;&amp;t.previousSibling){var e,r,n,i,c=t.previousSibling,a=c.getAttribute(&quot;data-cfemail&quot;);if(a){for(e=&quot;&quot;,r=parseInt(a.substr(0,2),16),n=2;a.length-n;n+=2)i=parseInt(a.substr(n,2),16)^r,e+=String.fromCharCode(i);e=document.createTextNode(e),c.parentNode.replaceChild(e,c)}}}catch(u){}}();/* ]]&gt; */&lt;/script&gt;\nFormat settings, CABAC : Yes\nFormat settings, ReFrames : 4 frames\nCodec ID : avc1\nCodec ID/Info : Advanced Video Coding\nDuration : 1h 45mn\nBit rate : 1 043 Kbps\nMaximum bit rate : 4 521 Kbps\nWidth : 1 280 pixels\nHeight : 720 pixels\nDisplay aspect ratio : 16:9\nFrame rate mode : Constant\nFrame rate : 23.976 fps\nColor space : YUV\nChroma subsampling : 4:2:0\nBit depth : 8 bits\nScan type : Progressive\nBits/(Pixel*Frame) : 0.047\nStream size : 787 MiB (93%)\nWriting library : x264 core 133 r2334 a3ac64b\n\nAudio\nID : 2\nFormat : AAC\nFormat/Info : Advanced Audio Codec\nFormat profile : LC\nCodec ID : 40\nDuration : 1h 45mn\nBit rate mode : Variable\nBit rate : 80.0 Kbps\nMaximum bit rate : 137 Kbps\nChannel(s) : 2 channels\nChannel positions : Front: L R\nSampling rate : 48.0 KHz\nCompression mode : Lossy\nStream size : 60.4 MiB (7%)\n\nClick To Resize\n\n[img]http://lookpic.com/O/i2/1769/OXr7BuvP.png[/img]\n[img]http://lookpic.com/O/i2/1773/rySeaMk.png[/img]\n[img]http://lookpic.com/O/i2/1889/ApG0ogle.png[/img]","torrent":{"xt":"urn:btih:4fe4cbf5bc4699f45901e7451aa7720a6ac11955","amp;dn":"The+Iceman+2012+720p+BRRip+AAC+x264-SSDD","amp;tr":["udp%3A%2F%2Ftracker.openbittorrent.com%3A80","udp%3A%2F%2Fopen.demonii.com%3A1337","udp%3A%2F%2Ftracker.coppersurfer.tk%3A6969","udp%3A%2F%2Fexodus.desync.com%3A6969"],"infoHash":"4fe4cbf5bc4699f45901e7451aa7720a6ac11955","infoHashBuffer":{"type":"Buffer","data":[79,228,203,245,188,70,153,244,89,1,231,69,26,167,114,10,106,193,25,85]},"announce":[],"urlList":[]}}